<svg version="1.1" id="Layer_1" xmlns="http://www.w3.org/2000/svg" xmlns:xlink="http://www.w3.org/1999/xlink" x="0px" y="0px"
	 width="100%" viewBox="0 0 500 151" enable-background="new 0 0 500 151" xml:space="preserve">
<path fill="#020202" opacity="1.000000" stroke="none" 
	d="
M360.000000,152.000000 
	C240.000092,152.000000 120.500183,152.000000 1.000208,152.000000 
	C1.000139,101.666801 1.000139,51.333595 1.000069,1.000296 
	C167.666397,1.000197 334.332794,1.000197 500.999390,1.000099 
	C500.999603,51.333035 500.999603,101.666069 500.999817,151.999542 
	C454.166656,152.000000 407.333344,152.000000 360.000000,152.000000 
M341.115875,82.321335 
	C340.889893,82.047638 340.663910,81.773941 340.160126,80.769714 
	C340.057495,77.947556 340.286713,75.055878 339.715973,72.331795 
	C339.418915,70.913910 337.924103,69.097069 336.592987,68.687866 
	C334.196655,67.951195 332.476868,69.128639 332.490021,72.081047 
	C332.535950,82.396980 332.380341,92.716438 332.655182,103.025139 
	C332.686920,104.214569 334.927521,106.234718 336.164856,106.250694 
	C337.387573,106.266457 339.484802,104.372101 339.705048,103.064178 
	C340.230103,99.946533 339.874359,96.680557 339.874359,93.474487 
	C340.336304,93.288902 340.798248,93.103317 341.260193,92.917725 
	C345.324738,96.692345 349.488892,100.366722 353.421967,104.273674 
	C356.502869,107.334084 359.710541,106.908318 364.221497,105.293900 
	C359.259949,100.616074 354.975464,96.288261 350.369720,92.334694 
	C347.255981,89.661888 347.114258,87.645706 350.039185,84.664360 
	C354.624573,79.990562 358.807739,74.922127 363.588226,69.540161 
	C358.767822,67.954689 355.526581,67.861092 352.560272,71.570328 
	C349.271729,75.682503 345.389771,79.320160 341.115875,82.321335 
M80.363495,35.465218 
	C75.578995,35.514931 70.695343,34.966785 66.030914,35.740421 
	C56.691074,37.289501 48.622387,41.516972 43.982620,50.233459 
	C34.903126,67.290649 43.981735,87.863861 63.176956,94.241989 
	C64.809273,94.784378 66.421745,95.386490 69.002724,96.300613 
	C59.255909,102.712189 49.966240,106.695213 39.196033,105.332344 
	C35.555614,104.871681 33.538486,106.004364 33.393311,108.261749 
	C43.772785,118.465912 53.612072,129.098145 63.466530,139.716293 
	C64.029221,140.322601 64.646164,140.943115 65.361023,141.328583 
	C66.443810,141.912445 68.001411,142.980072 68.696350,142.607925 
	C69.815926,142.008377 70.712265,140.499741 71.112541,139.194138 
	C71.478790,137.999512 71.067139,136.564835 70.990906,135.236374 
	C70.398682,124.916054 73.425606,115.729538 79.203590,107.321114 
	C82.284355,112.705833 84.579391,118.174606 88.123505,122.655403 
	C102.231239,140.491653 129.303391,137.392883 138.300171,117.014374 
	C141.677734,109.363884 141.794449,101.167557 140.693039,92.963692 
	C138.514511,76.736786 137.416595,60.496033 140.329880,44.242050 
	C141.063904,40.146793 142.143570,36.113491 143.173233,31.571613 
	C141.473938,31.777863 140.651672,31.762594 139.900391,31.986025 
	C127.747581,35.600250 115.376709,37.825916 102.660812,37.270889 
	C95.534309,36.959831 88.429253,36.157669 80.363495,35.465218 
M229.485001,102.029427 
	C229.152252,105.116074 230.235367,106.645485 233.641663,106.578735 
	C237.193909,106.509132 237.176086,104.233490 237.121689,101.832710 
	C236.963715,94.861397 236.975906,87.874626 236.478638,80.925591 
	C235.871216,72.437202 229.902786,67.736099 220.796478,68.065544 
	C211.526932,68.400909 205.315964,74.212212 205.293304,82.646790 
	C205.275421,89.298965 205.303406,95.951767 205.381134,102.603477 
	C205.420425,105.966263 208.083298,107.905617 210.824753,106.229202 
	C211.949249,105.541565 211.908035,103.132820 212.707672,101.677666 
	C213.541733,100.159828 214.945847,97.539955 215.761948,97.662277 
	C220.310608,98.344017 225.545639,94.846161 229.402069,99.649628 
	C229.652054,99.961014 229.466171,100.622337 229.485001,102.029427 
M287.870331,76.483673 
	C287.475189,85.418961 286.947876,94.352959 286.860138,103.291252 
	C286.849762,104.350983 289.274017,106.306831 290.514832,106.263817 
	C291.781464,106.219910 294.108795,104.125824 294.019775,103.098480 
	C293.557220,97.761749 296.311066,96.895653 300.637939,97.379745 
	C302.279541,97.563416 303.979492,97.571037 305.617676,97.371040 
	C309.440308,96.904350 311.266815,98.308708 310.846863,102.306503 
	C310.500732,105.601463 312.184357,106.618149 315.331757,106.556610 
	C318.912140,106.486626 318.728577,104.229370 318.714264,101.802521 
	C318.679901,95.984489 318.731934,90.165901 318.686890,84.348007 
	C318.626984,76.610527 314.461151,69.963654 308.167816,68.720848 
	C301.176422,67.340187 292.564331,67.445793 287.870331,76.483673 
M171.712250,106.493179 
	C175.522827,106.235008 179.350281,106.116005 183.136490,105.656891 
	C184.892502,105.443970 186.741837,104.856392 188.250351,103.944717 
	C194.850296,99.956017 194.856857,94.618958 188.262512,86.902382 
	C188.604721,86.446518 188.958725,85.928230 189.359146,85.448685 
	C194.132004,79.732491 192.715836,72.349403 185.744583,70.274673 
	C180.783264,68.798126 175.302475,69.084427 170.058868,68.533104 
	C166.536728,68.162781 165.428329,69.736382 165.493103,73.171089 
	C165.668884,82.493095 165.763702,91.827225 165.464127,101.142830 
	C165.329132,105.340363 166.667572,107.061295 171.712250,106.493179 
M443.529388,80.089951 
	C442.235291,81.480751 440.941223,82.871552 438.512604,85.481689 
	C438.512604,80.200218 438.855042,76.417900 438.349335,72.752579 
	C438.137726,71.218880 436.367462,69.172089 434.880341,68.700546 
	C432.143158,67.832664 431.227783,69.780640 431.249573,72.443634 
	C431.332489,82.592506 431.171112,92.745483 431.438812,102.888016 
	C431.471466,104.124947 433.365051,106.005623 434.721405,106.366814 
	C437.337952,107.063576 438.637726,105.429512 438.552795,102.665504 
	C438.454407,99.464676 438.529877,96.258507 438.529877,93.056435 
	C447.288818,96.430611 449.942352,108.786423 462.799988,105.838936 
	C456.263947,99.963654 450.473083,94.758224 444.648132,89.522133 
	C450.956329,82.177048 456.164856,76.112381 461.734009,69.627831 
	C456.919312,67.695763 453.603638,68.091827 450.805450,71.633652 
	C448.653015,74.358154 446.282471,76.910355 443.529388,80.089951 
M263.847778,106.292458 
	C264.344788,104.674278 265.223785,103.066917 265.269989,101.435974 
	C265.434479,95.625252 265.309692,89.806519 265.305756,83.990807 
	C265.300385,76.058601 265.305542,76.070312 273.241333,75.602478 
	C275.546112,75.466614 278.119049,75.722740 277.929932,72.087463 
	C277.757385,68.770927 275.574432,68.569412 273.065979,68.578598 
	C265.921021,68.604744 258.775757,68.556915 251.630875,68.591393 
	C245.816193,68.619461 245.555862,69.001244 246.945892,75.602234 
	C250.528992,75.602234 254.253235,75.602234 258.516968,75.602234 
	C258.516968,84.788445 258.643066,93.391052 258.455933,101.986839 
	C258.379395,105.501381 259.599762,106.964615 263.847778,106.292458 
M373.953796,91.433167 
	C374.072083,95.260376 374.319427,99.089363 374.266754,102.914215 
	C374.226410,105.841339 375.617950,106.628311 378.270630,106.581566 
	C384.101837,106.478813 389.948273,106.752487 395.759796,106.399681 
	C397.066284,106.320366 398.956238,104.503258 399.345978,103.135277 
	C400.063232,100.617599 398.648071,99.129845 395.760681,99.253822 
	C392.600098,99.389526 389.417633,99.111961 386.265594,99.324577 
	C382.800659,99.558319 381.521362,98.262482 381.622620,94.743553 
	C381.828613,87.583099 381.648499,80.412346 381.713318,73.246620 
	C381.738281,70.487541 381.565277,68.310059 377.824921,68.410255 
	C374.155518,68.508537 373.944489,70.748871 373.955688,73.452263 
	C373.979095,79.118523 373.957977,84.784973 373.953796,91.433167 
M416.378052,87.500320 
	C416.371094,82.508850 416.298584,77.516258 416.383789,72.526360 
	C416.429077,69.872345 415.537079,68.517838 412.662170,68.510956 
	C409.884766,68.504303 408.725677,69.683624 408.734436,72.388512 
	C408.767273,82.537697 408.782715,92.687210 408.730499,102.836220 
	C408.715790,105.699203 410.229462,107.071510 412.737030,106.359222 
	C414.148560,105.958260 416.078217,104.228271 416.188232,102.959457 
	C416.603546,98.169693 416.369049,93.323586 416.378052,87.500320 
z"/>
<path fill="#AEAEAE" opacity="1.000000" stroke="none" 
	d="
M80.839012,35.520996 
	C88.429253,36.157669 95.534309,36.959831 102.660812,37.270889 
	C115.376709,37.825916 127.747581,35.600250 139.900391,31.986025 
	C140.651672,31.762594 141.473938,31.777863 143.173233,31.571613 
	C142.143570,36.113491 141.063904,40.146793 140.329880,44.242050 
	C137.416595,60.496033 138.514511,76.736786 140.693039,92.963692 
	C141.794449,101.167557 141.677734,109.363884 138.300171,117.014374 
	C129.303391,137.392883 102.231239,140.491653 88.123505,122.655403 
	C84.579391,118.174606 82.284355,112.705833 79.203590,107.321114 
	C73.425606,115.729538 70.398682,124.916054 70.990906,135.236374 
	C71.067139,136.564835 71.478790,137.999512 71.112541,139.194138 
	C70.712265,140.499741 69.815926,142.008377 68.696350,142.607925 
	C68.001411,142.980072 66.443810,141.912445 65.361023,141.328583 
	C64.646164,140.943115 64.029221,140.322601 63.466530,139.716293 
	C53.612072,129.098145 43.772785,118.465912 33.393311,108.261749 
	C33.538486,106.004364 35.555614,104.871681 39.196033,105.332344 
	C49.966240,106.695213 59.255909,102.712189 69.002724,96.300613 
	C66.421745,95.386490 64.809273,94.784378 63.176956,94.241989 
	C43.981735,87.863861 34.903126,67.290649 43.982620,50.233459 
	C48.622387,41.516972 56.691074,37.289501 66.030914,35.740421 
	C70.695343,34.966785 75.578995,35.514931 80.839012,35.520996 
z"/>
<path fill="#999999" opacity="1.000000" stroke="none" 
	d="
M229.484009,101.575150 
	C229.466171,100.622337 229.652054,99.961014 229.402069,99.649628 
	C225.545639,94.846161 220.310608,98.344017 215.761948,97.662277 
	C214.945847,97.539955 213.541733,100.159828 212.707672,101.677666 
	C211.908035,103.132820 211.949249,105.541565 210.824753,106.229202 
	C208.083298,107.905617 205.420425,105.966263 205.381134,102.603477 
	C205.303406,95.951767 205.275421,89.298965 205.293304,82.646790 
	C205.315964,74.212212 211.526932,68.400909 220.796478,68.065544 
	C229.902786,67.736099 235.871216,72.437202 236.478638,80.925591 
	C236.975906,87.874626 236.963715,94.861397 237.121689,101.832710 
	C237.176086,104.233490 237.193909,106.509132 233.641663,106.578735 
	C230.235367,106.645485 229.152252,105.116074 229.484009,101.575150 
M212.676086,87.455833 
	C213.558136,88.916100 214.323410,91.534538 215.342331,91.637283 
	C219.891815,92.096024 224.513702,91.836624 229.634811,91.836624 
	C229.634811,88.138870 230.025055,85.114304 229.541306,82.236664 
	C228.854187,78.149345 226.768005,75.335419 221.843109,75.454536 
	C214.867355,75.623238 213.035660,77.623077 212.676086,87.455833 
z"/>
<path fill="#999999" opacity="1.000000" stroke="none" 
	d="
M288.077484,76.167465 
	C292.564331,67.445793 301.176422,67.340187 308.167816,68.720848 
	C314.461151,69.963654 318.626984,76.610527 318.686890,84.348007 
	C318.731934,90.165901 318.679901,95.984489 318.714264,101.802521 
	C318.728577,104.229370 318.912140,106.486626 315.331757,106.556610 
	C312.184357,106.618149 310.500732,105.601463 310.846863,102.306503 
	C311.266815,98.308708 309.440308,96.904350 305.617676,97.371040 
	C303.979492,97.571037 302.279541,97.563416 300.637939,97.379745 
	C296.311066,96.895653 293.557220,97.761749 294.019775,103.098480 
	C294.108795,104.125824 291.781464,106.219910 290.514832,106.263817 
	C289.274017,106.306831 286.849762,104.350983 286.860138,103.291252 
	C286.947876,94.352959 287.475189,85.418961 288.077484,76.167465 
M300.614105,91.874428 
	C303.100433,91.863968 305.599670,91.995667 308.066681,91.771973 
	C309.032440,91.684402 310.761200,90.725533 310.722565,90.289185 
	C310.351257,86.094681 310.580322,81.447571 308.722687,77.945816 
	C307.733978,76.082092 302.983704,75.598145 299.930084,75.594765 
	C295.706482,75.590088 293.933868,80.370804 293.965118,88.044769 
	C293.984344,92.763855 296.984680,91.796745 300.614105,91.874428 
z"/>
<path fill="#9C9C9C" opacity="1.000000" stroke="none" 
	d="
M171.261719,106.493423 
	C166.667572,107.061295 165.329132,105.340363 165.464127,101.142830 
	C165.763702,91.827225 165.668884,82.493095 165.493103,73.171089 
	C165.428329,69.736382 166.536728,68.162781 170.058868,68.533104 
	C175.302475,69.084427 180.783264,68.798126 185.744583,70.274673 
	C192.715836,72.349403 194.132004,79.732491 189.359146,85.448685 
	C188.958725,85.928230 188.604721,86.446518 188.262512,86.902382 
	C194.856857,94.618958 194.850296,99.956017 188.250351,103.944717 
	C186.741837,104.856392 184.892502,105.443970 183.136490,105.656891 
	C179.350281,106.116005 175.522827,106.235008 171.261719,106.493423 
M185.075302,96.774864 
	C184.239960,94.911102 183.833298,91.948418 182.477249,91.419411 
	C179.898941,90.413589 176.708817,90.408028 173.932663,90.896248 
	C173.278564,91.011276 173.047775,94.738724 173.050278,96.803825 
	C173.051315,97.660965 174.274460,99.307701 174.772507,99.245232 
	C178.090103,98.829124 181.361877,98.047600 185.075302,96.774864 
M183.391556,76.890144 
	C180.858002,76.390297 178.323685,75.555008 175.791306,75.560890 
	C174.821136,75.563133 173.076004,77.470230 173.053253,78.538475 
	C173.008713,80.629318 173.623001,84.371475 174.502853,84.535072 
	C177.053375,85.009308 180.223236,84.669930 182.442947,83.407021 
	C183.660858,82.714073 183.452942,79.515030 183.391556,76.890144 
z"/>
<path fill="#999999" opacity="1.000000" stroke="none" 
	d="
M341.766235,83.164459 
	C345.389771,79.320160 349.271729,75.682503 352.560272,71.570328 
	C355.526581,67.861092 358.767822,67.954689 363.588226,69.540161 
	C358.807739,74.922127 354.624573,79.990562 350.039185,84.664360 
	C347.114258,87.645706 347.255981,89.661888 350.369720,92.334694 
	C354.975464,96.288261 359.259949,100.616074 364.221497,105.293900 
	C359.710541,106.908318 356.502869,107.334084 353.421967,104.273674 
	C349.488892,100.366722 345.324738,96.692345 341.260193,92.917725 
	C340.798248,93.103317 340.336304,93.288902 339.874359,93.474487 
	C339.874359,96.680557 340.230103,99.946533 339.705048,103.064178 
	C339.484802,104.372101 337.387573,106.266457 336.164856,106.250694 
	C334.927521,106.234718 332.686920,104.214569 332.655182,103.025139 
	C332.380341,92.716438 332.535950,82.396980 332.490021,72.081047 
	C332.476868,69.128639 334.196655,67.951195 336.592987,68.687866 
	C337.924103,69.097069 339.418915,70.913910 339.715973,72.331795 
	C340.286713,75.055878 340.057495,77.947556 340.078247,81.411880 
	C340.138123,82.747658 340.279877,83.441277 340.421631,84.134903 
	C340.869812,83.811417 341.318024,83.487938 341.766235,83.164459 
z"/>
<path fill="#999999" opacity="1.000000" stroke="none" 
	d="
M443.769165,79.814560 
	C446.282471,76.910355 448.653015,74.358154 450.805450,71.633652 
	C453.603638,68.091827 456.919312,67.695763 461.734009,69.627831 
	C456.164856,76.112381 450.956329,82.177048 444.648132,89.522133 
	C450.473083,94.758224 456.263947,99.963654 462.799988,105.838936 
	C449.942352,108.786423 447.288818,96.430611 438.529877,93.056435 
	C438.529877,96.258507 438.454407,99.464676 438.552795,102.665504 
	C438.637726,105.429512 437.337952,107.063576 434.721405,106.366814 
	C433.365051,106.005623 431.471466,104.124947 431.438812,102.888016 
	C431.171112,92.745483 431.332489,82.592506 431.249573,72.443634 
	C431.227783,69.780640 432.143158,67.832664 434.880341,68.700546 
	C436.367462,69.172089 438.137726,71.218880 438.349335,72.752579 
	C438.855042,76.417900 438.512604,80.200218 438.512604,85.481689 
	C440.941223,82.871552 442.235291,81.480751 443.769165,79.814560 
z"/>
<path fill="#A0A0A0" opacity="1.000000" stroke="none" 
	d="
M263.466248,106.354645 
	C259.599762,106.964615 258.379395,105.501381 258.455933,101.986839 
	C258.643066,93.391052 258.516968,84.788445 258.516968,75.602234 
	C254.253235,75.602234 250.528992,75.602234 246.945892,75.602234 
	C245.555862,69.001244 245.816193,68.619461 251.630875,68.591393 
	C258.775757,68.556915 265.921021,68.604744 273.065979,68.578598 
	C275.574432,68.569412 277.757385,68.770927 277.929932,72.087463 
	C278.119049,75.722740 275.546112,75.466614 273.241333,75.602478 
	C265.305542,76.070312 265.300385,76.058601 265.305756,83.990807 
	C265.309692,89.806519 265.434479,95.625252 265.269989,101.435974 
	C265.223785,103.066917 264.344788,104.674278 263.466248,106.354645 
z"/>
<path fill="#929292" opacity="1.000000" stroke="none" 
	d="
M373.954468,90.942253 
	C373.957977,84.784973 373.979095,79.118523 373.955688,73.452263 
	C373.944489,70.748871 374.155518,68.508537 377.824921,68.410255 
	C381.565277,68.310059 381.738281,70.487541 381.713318,73.246620 
	C381.648499,80.412346 381.828613,87.583099 381.622620,94.743553 
	C381.521362,98.262482 382.800659,99.558319 386.265594,99.324577 
	C389.417633,99.111961 392.600098,99.389526 395.760681,99.253822 
	C398.648071,99.129845 400.063232,100.617599 399.345978,103.135277 
	C398.956238,104.503258 397.066284,106.320366 395.759796,106.399681 
	C389.948273,106.752487 384.101837,106.478813 378.270630,106.581566 
	C375.617950,106.628311 374.226410,105.841339 374.266754,102.914215 
	C374.319427,99.089363 374.072083,95.260376 373.954468,90.942253 
z"/>
<path fill="#9A9A9A" opacity="1.000000" stroke="none" 
	d="
M416.377899,87.999443 
	C416.369049,93.323586 416.603546,98.169693 416.188232,102.959457 
	C416.078217,104.228271 414.148560,105.958260 412.737030,106.359222 
	C410.229462,107.071510 408.715790,105.699203 408.730499,102.836220 
	C408.782715,92.687210 408.767273,82.537697 408.734436,72.388512 
	C408.725677,69.683624 409.884766,68.504303 412.662170,68.510956 
	C415.537079,68.517838 416.429077,69.872345 416.383789,72.526360 
	C416.298584,77.516258 416.371094,82.508850 416.377899,87.999443 
z"/>
<path fill="#0F0F0F" opacity="1.000000" stroke="none" 
	d="
M212.677673,86.997894 
	C213.035660,77.623077 214.867355,75.623238 221.843109,75.454536 
	C226.768005,75.335419 228.854187,78.149345 229.541306,82.236664 
	C230.025055,85.114304 229.634811,88.138870 229.634811,91.836624 
	C224.513702,91.836624 219.891815,92.096024 215.342331,91.637283 
	C214.323410,91.534538 213.558136,88.916100 212.677673,86.997894 
z"/>
<path fill="#101010" opacity="1.000000" stroke="none" 
	d="
M300.143860,91.876236 
	C296.984680,91.796745 293.984344,92.763855 293.965118,88.044769 
	C293.933868,80.370804 295.706482,75.590088 299.930084,75.594765 
	C302.983704,75.598145 307.733978,76.082092 308.722687,77.945816 
	C310.580322,81.447571 310.351257,86.094681 310.722565,90.289185 
	C310.761200,90.725533 309.032440,91.684402 308.066681,91.771973 
	C305.599670,91.995667 303.100433,91.863968 300.143860,91.876236 
z"/>
<path fill="#161616" opacity="1.000000" stroke="none" 
	d="
M184.861923,97.079849 
	C181.361877,98.047600 178.090103,98.829124 174.772507,99.245232 
	C174.274460,99.307701 173.051315,97.660965 173.050278,96.803825 
	C173.047775,94.738724 173.278564,91.011276 173.932663,90.896248 
	C176.708817,90.408028 179.898941,90.413589 182.477249,91.419411 
	C183.833298,91.948418 184.239960,94.911102 184.861923,97.079849 
z"/>
<path fill="#181818" opacity="1.000000" stroke="none" 
	d="
M183.639740,77.168068 
	C183.452942,79.515030 183.660858,82.714073 182.442947,83.407021 
	C180.223236,84.669930 177.053375,85.009308 174.502853,84.535072 
	C173.623001,84.371475 173.008713,80.629318 173.053253,78.538475 
	C173.076004,77.470230 174.821136,75.563133 175.791306,75.560890 
	C178.323685,75.555008 180.858002,76.390297 183.639740,77.168068 
z"/>
<path fill="#020202" opacity="1.000000" stroke="none" 
	d="
M341.441040,82.742897 
	C341.318024,83.487938 340.869812,83.811417 340.421631,84.134903 
	C340.279877,83.441277 340.138123,82.747658 340.217163,81.777145 
	C340.663910,81.773941 340.889893,82.047638 341.441040,82.742897 
z"/>
</svg>